<svg width="174" height="32" viewBox="0 0 174 32" fill="none" xmlns="http://www.w3.org/2000/svg">
<path d="M170.119 20.7635V24.7248H161.692L161.665 24.617C160.121 24.617 158.766 24.3565 157.599 23.8355C156.45 23.3145 155.553 22.578 154.907 21.6258C154.278 20.6737 153.964 19.5599 153.964 18.2844C153.964 16.9729 154.278 15.8411 154.907 14.889C155.553 13.9189 156.45 13.1644 157.599 12.6254C158.766 12.0685 160.121 11.79 161.665 11.79H173.997V32.0006H168.396V13.2721L170.9 15.7783H162.473C161.557 15.7783 160.839 16.0028 160.319 16.4519C159.816 16.8831 159.565 17.4939 159.565 18.2844C159.565 19.0569 159.816 19.6677 160.319 20.1168C160.839 20.5479 161.557 20.7635 162.473 20.7635H170.119ZM166.781 22.5421L159.888 32.0006H153.426L160.534 22.5421H166.781Z" fill="#0B0D20"/>
<path d="M127.711 32.0006V11.79H133.207V29.0633L131.672 28.713L143.123 11.79H150.425V32.0006H144.901V14.4039L146.464 14.7543L134.797 32.0006H127.711Z" fill="#0B0D20"/>
<path d="M116.893 11.79C118.599 11.79 120.07 12.0775 121.304 12.6524C122.557 13.2272 123.51 14.0446 124.163 15.1046C124.817 16.1465 125.143 17.3682 125.143 18.7694C125.143 20.1527 124.817 21.3743 124.163 22.4343C123.51 23.4762 122.557 24.2847 121.304 24.8595C120.07 25.4344 118.599 25.7218 116.893 25.7218H108.044V21.2486H116.539C117.447 21.2486 118.155 21.033 118.663 20.6018C119.171 20.1527 119.425 19.5419 119.425 18.7694C119.425 17.979 119.171 17.3682 118.663 16.937C118.155 16.4879 117.447 16.2633 116.539 16.2633H108.534L111.066 13.6764V32.0006H105.43V11.79H116.893Z" fill="#0B0D20"/>
<path d="M101.104 19.8743V23.9164H86.2518V19.8743H101.104ZM88.7408 21.8953V30.0065L86.4683 27.4734H101.997V32.0006H83.1406V21.8953V11.79H101.862V16.3172H86.4683L88.7408 13.7841V21.8953Z" fill="#0B0D20"/>
<path d="M64.2178 19.47H73.1184C74.8215 19.47 76.2197 19.7305 77.3133 20.2515C78.4068 20.7725 79.2224 21.5091 79.7602 22.4612C80.298 23.3954 80.5669 24.4912 80.5669 25.7488C80.5669 27.0063 80.2712 28.1112 79.6796 29.0633C79.088 29.9975 78.2365 30.7251 77.125 31.2461C76.0136 31.7491 74.678 32.0006 73.1184 32.0006H59.9961V21.5181V11.79H79.0073V16.0208H63.4649L65.3359 13.4608V21.4103V30.4915L63.3573 27.9315H72.3924C73.1991 27.9315 73.8355 27.7249 74.3016 27.3117C74.7856 26.8986 75.0276 26.3327 75.0276 25.6141C75.0276 24.8775 74.7856 24.3116 74.3016 23.9164C73.8355 23.5032 73.1991 23.2966 72.3924 23.2966H64.2178V19.47Z" fill="#0B0D20"/>
<path d="M33.8555 32.0006V11.79H39.352V29.0633L37.8162 28.713L49.2673 11.79H56.5691V32.0006H51.0456V14.4039L52.6084 14.7543L40.9417 32.0006H33.8555Z" fill="#0B0D20"/>
<path d="M9.85547 32.0006V22.3534H15.5582V27.5543L14.0357 26.3955L25.8011 11.79H31.8637L15.0323 32.0006H9.85547ZM19.7661 22.3534L23.974 18.958L32.1406 32.0006H25.635L19.7661 22.3534Z" fill="#0B0D20"/>
<path d="M8.28439 3.75842L4.94141 6.28516L8.82778 10.0574L8.97119 8.00107L11.0324 8.39111L8.28439 3.75842Z" fill="#0B0D20"/>
<path d="M10.3308 9.81733L22.3652 12.8601L19.2887 16.4346L14.1559 14.6966L14.6737 20.3947L10.3708 20.4119L10.3308 9.81733Z" fill="#294CFF"/>
<path d="M3.1955 12.1388L4.78889 16.1318L9.2261 14.5104L9.13074 10.4679L3.1955 12.1388Z" fill="#0B0D20"/>
<path d="M14.5154 3.58096L18.0389 6.11515L15.3073 9.91221L11.3518 8.78733L14.5154 3.58096Z" fill="#0B0D20"/>
</svg>
